<mxfile host="app.diagrams.net" modified="2023-08-24T08:11:24.886Z" agent="Mozilla/5.0 (Windows NT 10.0; Win64; x64) AppleWebKit/537.36 (KHTML, like Gecko) Chrome/116.0.0.0 Safari/537.36" version="21.6.9" etag="NP7jFFyY3R12eAb2wNBF" type="github">
  <diagram name="Page-1" id="D10hTHudT5h7KPWlAt-e">
    <mxGraphModel>
      <root>
        <mxCell id="0" />
        <mxCell id="1" parent="0" />
      </root>
    </mxGraphModel>
  </diagram>
</mxfile>
